<svg width="56" height="56" viewBox="0 0 56 56" fill="none" xmlns="http://www.w3.org/2000/svg">
<path d="M55.1671 27.5835C55.1671 12.3496 42.8175 0 27.5835 0C12.3496 0 0 12.3496 0 27.5835C0 41.3513 10.087 52.7627 23.2736 54.832V35.5569H16.27V27.5835H23.2736V21.5065C23.2736 14.5934 27.3916 10.7748 33.6923 10.7748C36.7102 10.7748 39.8668 11.3136 39.8668 11.3136V18.1017H36.3886C32.9621 18.1017 31.8935 20.2279 31.8935 22.4093V27.5835H39.5436L38.3206 35.5569H31.8935V54.832C45.0802 52.7627 55.1671 41.3513 55.1671 27.5835Z" fill="#0C2B5F"/>
<path d="M38.3207 35.5565L39.5436 27.5831H31.8935V22.4088C31.8935 20.2275 32.962 18.1013 36.3887 18.1013H39.8669V11.3132C39.8669 11.3132 36.7102 10.7744 33.6924 10.7744C27.3917 10.7744 23.2737 14.593 23.2737 21.5061V27.5831H16.27V35.5565H23.2737V54.8316C24.6779 55.0519 26.1173 55.1667 27.5836 55.1667C29.0498 55.1667 30.4891 55.0519 31.8935 54.8316V35.5565H38.3207Z" fill="#F5F5F5"/>
</svg>
