<svg width="56" height="56" viewBox="0 0 56 56" fill="none" xmlns="http://www.w3.org/2000/svg">
<g clip-path="url(#clip0_51_134)">
<path fill-rule="evenodd" clip-rule="evenodd" d="M27.585 55.17C42.8198 55.17 55.17 42.8198 55.17 27.585C55.17 12.3502 42.8198 0 27.585 0C12.3502 0 0 12.3502 0 27.585C0 42.8198 12.3502 55.17 27.585 55.17Z" fill="#0C2B5F"/>
<path fill-rule="evenodd" clip-rule="evenodd" d="M27.6513 42.4992C25.0211 42.4992 22.5502 41.827 20.4004 40.6472L12.0957 43.2862L14.8029 35.3003C13.4374 33.0571 12.6508 30.4266 12.6508 27.6148C12.6508 19.3943 19.3666 12.7305 27.6516 12.7305C35.9356 12.7305 42.6514 19.3943 42.6514 27.6148C42.6514 35.8353 35.9359 42.4992 27.6513 42.4992ZM27.6513 15.1009C20.6968 15.1009 15.0399 20.7147 15.0399 27.6148C15.0399 30.353 15.9325 32.8887 17.4419 34.9519L15.8666 39.5991L20.7127 38.0588C22.7043 39.3662 25.0897 40.1287 27.6513 40.1287C34.6047 40.1287 40.2626 34.5153 40.2626 27.6152C40.2626 20.715 34.6047 15.1009 27.6513 15.1009ZM35.2257 31.0428C35.1333 30.8911 34.8882 30.7994 34.5212 30.6171C34.1532 30.4348 32.345 29.5517 32.0085 29.4305C31.671 29.309 31.4256 29.2475 31.1808 29.6128C30.936 29.9781 30.2312 30.7994 30.0163 31.0428C29.8017 31.2866 29.5875 31.3172 29.2198 31.1345C28.8524 30.9522 27.6676 30.5668 26.2627 29.3239C25.1698 28.357 24.4317 27.1633 24.2175 26.7976C24.0029 26.4327 24.1947 26.2354 24.3788 26.0538C24.5441 25.8901 24.7464 25.6277 24.9305 25.4148C25.1145 25.2016 25.1756 25.0498 25.2978 24.8061C25.4207 24.5627 25.3592 24.3498 25.2672 24.1668C25.1752 23.9845 24.4395 22.1892 24.1333 21.4585C23.8271 20.7286 23.5212 20.8501 23.3062 20.8501C23.0917 20.8501 22.8466 20.8196 22.6014 20.8196C22.3563 20.8196 21.9577 20.9109 21.6206 21.2759C21.2838 21.6412 20.3342 22.5239 20.3342 24.3189C20.3342 26.1142 21.6511 27.8487 21.8355 28.0918C22.0192 28.3349 24.3784 32.1388 28.1161 33.5997C31.8551 35.0602 31.855 34.573 32.5293 34.5123C33.2026 34.4515 34.7039 33.6299 35.0111 32.7781C35.317 31.9256 35.317 31.1949 35.2257 31.0428Z" fill="white"/>
</g>
<defs>
<clipPath id="clip0_51_134">
<rect width="55.17" height="55.17" fill="white"/>
</clipPath>
</defs>
</svg>
